<svg width="66" height="73" viewBox="0 0 66 73" fill="none" xmlns="http://www.w3.org/2000/svg">
<path d="M65.109 25.6102H43.7219V72.4102H36.5929V50.8102H29.4638V72.4102H22.3348V25.6102H0.947662V18.4102H65.109V25.6102ZM33.0283 0.410156C34.9191 0.410156 36.7324 1.16873 38.0693 2.51899C39.4063 3.86925 40.1574 5.7006 40.1574 7.61016C40.1574 9.51971 39.4063 11.3511 38.0693 12.7013C36.7324 14.0516 34.9191 14.8102 33.0283 14.8102C31.1376 14.8102 29.3243 14.0516 27.9874 12.7013C26.6504 11.3511 25.8993 9.51971 25.8993 7.61016C25.8993 3.61416 29.0717 0.410156 33.0283 0.410156Z" fill="#EC5863"/>
</svg>
