<svg width="68" height="73" viewBox="0 0 68 73" fill="none" xmlns="http://www.w3.org/2000/svg">
<path d="M33.7371 0.638428C27.9107 0.638428 24.4233 1.52458 22.2065 2.6295C21.0967 3.18335 20.3088 3.76489 19.7789 4.36027C19.2462 4.95566 18.9105 5.83074 18.9105 5.83074C18.8235 6.05314 18.7656 6.28584 18.7384 6.52304L17.2624 25.4757C17.243 25.592 17.2819 25.7803 17.2624 25.9077L17.0904 27.8129C17.0743 27.9851 17.0743 28.1585 17.0904 28.3307C17.0904 37.4692 24.5814 44.9461 33.7371 44.9461C42.8927 44.9461 50.3837 37.4692 50.3837 28.3307V27.8987C50.3841 27.8701 50.3841 27.8415 50.3837 27.8129L48.7357 6.52304C48.7085 6.28584 48.6507 6.05314 48.5637 5.83074C48.5637 5.83074 48.228 4.95566 47.6953 4.36027C47.1654 3.76212 46.3774 3.18058 45.2676 2.6295C43.0509 1.52181 39.5634 0.638428 33.7371 0.638428ZM33.7371 44.9461C15.4258 44.9461 0.443787 53.5474 0.443787 61.3012V72.6384H67.0303V61.3012C67.0303 53.935 53.4855 45.8212 36.4255 45.032C35.5306 44.973 34.6339 44.9444 33.7371 44.9461ZM33.7371 6.17689C39.0085 6.17689 41.6414 7.00766 42.754 7.5615C43.1258 7.74704 43.1702 7.81904 43.2756 7.90766L44.402 22.1C41.8495 22.255 38.3704 22.7923 33.7371 22.7923C29.1038 22.7923 25.6274 22.255 23.0721 22.1L24.1985 7.90766C24.3012 7.81904 24.3484 7.74704 24.7201 7.5615C25.8327 7.00766 28.4656 6.17689 33.7371 6.17689ZM31.4814 8.94612V12.236H28.1882V16.736H31.4842V20.023H35.9899V16.7332H39.2859V12.236H35.9899V8.94612H31.4842H31.4814ZM25.4137 51.1769L32.5246 67.1H5.99267V61.3012C5.99267 59.2381 13.0675 53.1957 25.4137 51.1769ZM42.0604 51.1769C54.4066 53.1984 61.4815 59.2381 61.4815 61.3012V67.1H34.9495L42.0604 51.1769Z" fill="#EC5863"/>
</svg>
