<svg width="89" height="73" viewBox="0 0 89 73" fill="none" xmlns="http://www.w3.org/2000/svg">
<path d="M24.9537 0.967773C18.5895 0.967773 12.4859 3.4698 7.98571 7.92344C3.48552 12.3771 0.957336 18.4175 0.957336 24.7159C0.957336 26.8748 1.35 29.0337 1.91719 31.1927H19.7181L25.2591 16.6415C26.568 13.1873 31.7163 12.8418 33.3742 16.6415L42.4056 39.8283L44.9797 33.697C45.5469 32.2721 47.074 31.1927 48.95 31.1927H87.257C87.8241 29.0337 88.2168 26.8748 88.2168 24.7159C88.2168 18.4175 85.6886 12.3771 81.1884 7.92344C76.6882 3.4698 70.5847 0.967773 64.2204 0.967773C56.1053 0.967773 48.95 4.98337 44.5871 11.0715C40.2241 4.98337 33.0688 0.967773 24.9537 0.967773ZM5.32031 37.6694C4.16318 37.6694 3.05344 38.1243 2.23522 38.9341C1.41701 39.7438 0.957336 40.8421 0.957336 41.9873C0.957336 43.1324 1.41701 44.2307 2.23522 45.0404C3.05344 45.8502 4.16318 46.3051 5.32031 46.3051H15.966L40.2241 70.0532C44.5871 73.9393 44.5871 73.9393 48.95 70.0532L73.2082 46.3051H83.8538C85.011 46.3051 86.1207 45.8502 86.9389 45.0404C87.7571 44.2307 88.2168 43.1324 88.2168 41.9873C88.2168 40.8421 87.7571 39.7438 86.9389 38.9341C86.1207 38.1243 85.011 37.6694 83.8538 37.6694H50.6952L46.6377 47.6005C44.8925 51.9615 39.8751 51.357 38.2608 47.73L29.3167 24.7159L25.1282 34.7765C24.4738 36.4172 22.9904 37.6694 21.027 37.6694H5.32031Z" fill="#EC5863"/>
</svg>
